<?xml version="1.0" standalone="no"?>
<!DOCTYPE svg PUBLIC "-//W3C//DTD SVG 20010904//EN"
 "http://www.w3.org/TR/2001/REC-SVG-20010904/DTD/svg10.dtd">
<svg version="1.0" xmlns="http://www.w3.org/2000/svg"
 width="128.000000pt" height="128.000000pt" viewBox="0 0 128.000000 128.000000"
 preserveAspectRatio="xMidYMid meet">

<g transform="translate(0.000000,128.000000) scale(0.100000,-0.100000)"
fill="#000000" stroke="none">
<path d="M916 1240 c-50 -15 -107 -83 -106 -127 1 -10 7 -1 15 20 18 53 51 85
98 98 106 28 217 -49 217 -150 0 -83 -50 -127 -156 -138 -29 -3 -59 -12 -66
-21 -19 -22 -22 -203 -8 -408 15 -207 10 -234 -46 -284 -20 -17 -60 -37 -95
-47 l-60 -17 3 -35 3 -36 -51 -3 -52 -3 -6 35 c-5 28 -12 36 -35 41 -50 11
-79 -3 -83 -38 -3 -31 -4 -32 -53 -32 l-50 0 -3 43 c-3 41 -5 44 -55 66 -72
32 -150 96 -192 158 -40 60 -41 65 -17 71 12 3 10 5 -7 6 -20 1 -22 -2 -17
-26 18 -70 121 -173 221 -219 47 -22 50 -26 55 -66 l5 -43 49 -3 c28 -2 59 1
70 6 12 6 29 13 39 16 9 3 17 15 17 26 0 13 7 20 20 20 15 0 20 -7 20 -24 0
-42 27 -59 79 -51 25 3 51 13 57 20 6 8 33 15 60 18 l49 3 -47 2 c-35 2 -47 6
-50 19 -3 14 9 22 51 35 31 9 57 15 60 13 2 -3 4 -18 5 -34 1 -16 5 -27 10
-24 4 3 5 22 2 43 -5 30 -2 41 15 56 55 50 57 75 33 460 -7 103 0 198 15 223
5 8 37 18 71 23 109 14 150 56 150 150 0 117 -114 194 -234 158z m-383 -1104
c6 -14 0 -26 -14 -26 -3 0 -9 9 -12 20 -6 23 18 28 26 6z"/>
<path d="M936 1092 c-3 -6 -1 -14 5 -17 15 -10 25 3 12 16 -7 7 -13 7 -17 1z"/>
<path d="M802 1065 c0 -16 2 -22 5 -12 2 9 2 23 0 30 -3 6 -5 -1 -5 -18z"/>
<path d="M792 1005 c0 -16 2 -22 5 -12 2 9 2 23 0 30 -3 6 -5 -1 -5 -18z"/>
<path d="M782 945 c0 -16 2 -22 5 -12 2 9 2 23 0 30 -3 6 -5 -1 -5 -18z"/>
<path d="M772 890 c0 -14 2 -19 5 -12 2 6 2 18 0 25 -3 6 -5 1 -5 -13z"/>
<path d="M746 769 c-9 -50 -15 -93 -13 -95 2 -3 12 36 22 86 10 50 16 93 13
95 -2 3 -12 -36 -22 -86z"/>
<path d="M721 642 c-1 -20 -5 -22 -43 -17 -39 4 -40 4 -10 -4 18 -5 35 -11 38
-14 3 -3 -8 -45 -24 -93 -17 -49 -28 -91 -26 -93 14 -14 81 207 70 233 -2 6
-5 1 -5 -12z"/>
<path d="M568 633 c12 -2 32 -2 45 0 12 2 2 4 -23 4 -25 0 -35 -2 -22 -4z"/>
<path d="M465 620 c-14 -7 -8 -8 20 -3 22 3 42 7 44 9 9 8 -45 2 -64 -6z"/>
<path d="M365 583 c-16 -9 -57 -36 -89 -61 -33 -24 -78 -53 -100 -63 -23 -10
-35 -19 -28 -19 19 0 71 28 114 62 20 16 63 44 94 63 58 35 64 48 9 18z"/>
</g>
</svg>
